<svg xmlns="http://www.w3.org/2000/svg" xmlns:xlink="http://www.w3.org/1999/xlink" width="200" zoomAndPan="magnify" viewBox="0 0 375 374.999991" height="64" preserveAspectRatio="xMidYMid meet" version="1.0"><defs><g/><clipPath id="da6ac4fa65"><path d="M 162 227 L 201 227 L 201 282 L 162 282 Z M 162 227 " clip-rule="nonzero"/></clipPath><clipPath id="913456c5ab"><path d="M 165.796875 225.851562 L 203.796875 230.242188 L 197.601562 283.882812 L 159.601562 279.496094 Z M 165.796875 225.851562 " clip-rule="nonzero"/></clipPath><clipPath id="bbf7f5c5d4"><path d="M 163.210938 183.816406 L 211.960938 183.816406 L 211.960938 246.816406 L 163.210938 246.816406 Z M 163.210938 183.816406 " clip-rule="nonzero"/></clipPath><clipPath id="d2db7d1719"><path d="M 159 78 L 235 78 L 235 288 L 159 288 Z M 159 78 " clip-rule="nonzero"/></clipPath><clipPath id="73be565c87"><path d="M 164.554688 75.941406 L 240.765625 82.558594 L 222.59375 291.773438 L 146.382812 285.152344 Z M 164.554688 75.941406 " clip-rule="nonzero"/></clipPath><clipPath id="3f2029e055"><path d="M 164.554688 75.941406 L 240.765625 82.558594 L 222.59375 291.773438 L 146.382812 285.152344 Z M 164.554688 75.941406 " clip-rule="nonzero"/></clipPath></defs><rect x="-37.5" width="450" fill="#ffffff" y="-37.499999" height="449.999989" fill-opacity="1"/><rect x="-37.5" width="450" fill="#ffffff" y="-37.499999" height="449.999989" fill-opacity="1"/><rect x="-37.5" width="450" fill="#ffffff" y="-37.499999" height="449.999989" fill-opacity="1"/><g fill="#38b6ff" fill-opacity="1"><g transform="translate(35.247176, 296.413746)"><g><path d="M 35.835938 -62.675781 L 39.460938 -89.367188 L 52.082031 -89.367188 C 57.449219 -89.367188 63.109375 -87.628906 62.09375 -76.890625 L 61.949219 -75.296875 C 60.933594 -64.851562 53.824219 -62.675781 48.457031 -62.675781 Z M 32.789062 -38.882812 L 40.476562 -38.882812 L 50.195312 0 L 79.9375 0 L 67.898438 -42.652344 C 78.488281 -47.003906 87.191406 -56.144531 89.660156 -74.570312 L 90.09375 -77.761719 C 94.300781 -109.097656 73.121094 -113.160156 53.96875 -113.160156 L 14.941406 -113.160156 L 0.144531 0 L 27.710938 0 Z M 32.789062 -38.882812 "/></g></g></g><g fill="#38b6ff" fill-opacity="1"><g transform="translate(134.909727, 296.413746)"><g><path d="M 42.074219 2.03125 C 74.859375 2.03125 85.160156 -12.1875 88.207031 -35.980469 L 98.363281 -113.160156 L 70.796875 -113.160156 L 60.789062 -36.703125 C 59.628906 -27.710938 55.710938 -21.761719 43.667969 -21.761719 C 31.628906 -21.761719 30.613281 -27.710938 31.773438 -36.703125 L 41.78125 -113.160156 L 14.21875 -113.160156 L 4.0625 -35.980469 C 1.015625 -12.1875 9.285156 2.03125 42.074219 2.03125 Z M 42.074219 2.03125 "/></g></g></g><g fill="#38b6ff" fill-opacity="1"><g transform="translate(239.64965, 296.413746)"><g><path d="M 100.539062 -113.160156 L 74.425781 -113.160156 L 69.058594 -72.539062 L 67.027344 -50.777344 L 43.957031 -113.160156 L 14.941406 -113.160156 L 0.144531 0 L 26.257812 0 L 31.480469 -40.621094 L 33.65625 -62.382812 L 56.726562 0 L 85.742188 0 Z M 100.539062 -113.160156 "/></g></g></g><g clip-path="url(#da6ac4fa65)"><g clip-path="url(#913456c5ab)"><path fill="#38b6ff" d="M 184.796875 228.046875 C 174.304688 226.835938 164.410156 237.863281 162.699219 252.675781 C 160.988281 267.488281 168.109375 280.476562 178.601562 281.6875 C 189.09375 282.902344 198.988281 271.875 200.699219 257.0625 C 202.410156 242.25 195.289062 229.257812 184.796875 228.046875 " fill-opacity="1" fill-rule="nonzero"/></g></g><g clip-path="url(#bbf7f5c5d4)"><path fill="#38b6ff" d="M 163.214844 183.816406 L 211.960938 183.816406 L 211.960938 246.816406 L 163.214844 246.816406 L 163.214844 183.816406 " fill-opacity="1" fill-rule="nonzero"/></g><g clip-path="url(#d2db7d1719)"><g clip-path="url(#73be565c87)"><g clip-path="url(#3f2029e055)"><path fill="#ffffff" d="M 234.65625 147.90625 C 233.992188 145.203125 233.328125 142.5 232.664062 139.796875 C 232.574219 139.429688 232.269531 138.699219 232.441406 138.363281 C 232.566406 138.128906 232.820312 137.976562 232.929688 137.734375 C 233.035156 137.511719 232.992188 137.25 232.941406 137.007812 C 232.3125 134.152344 230.214844 131.871094 228.917969 129.246094 C 227.359375 126.097656 226.953125 122.453125 225.199219 119.410156 C 224.066406 117.449219 222.425781 115.832031 220.65625 114.417969 C 217.253906 111.703125 213.355469 109.691406 209.488281 107.695312 C 207.90625 106.882812 206.269531 106.050781 204.496094 105.910156 C 204.125 106.574219 202.871094 106.511719 202.351562 105.957031 C 202.078125 103.265625 202.609375 100.496094 203.863281 98.097656 C 203.960938 97.90625 204.078125 97.707031 204.269531 97.609375 C 204.488281 97.503906 204.753906 97.558594 204.992188 97.511719 C 205.546875 97.398438 205.828125 96.792969 206.027344 96.261719 C 206.332031 95.441406 206.644531 94.589844 206.609375 93.714844 C 206.570312 92.839844 206.097656 91.917969 205.269531 91.628906 C 205.105469 91.574219 204.921875 91.535156 204.816406 91.402344 C 204.714844 91.28125 204.707031 91.109375 204.707031 90.953125 C 204.710938 89.371094 205.257812 87.777344 204.9375 86.226562 C 204.773438 85.4375 204.398438 84.710938 204.019531 84 C 203.28125 82.613281 202.476562 81.167969 201.144531 80.328125 C 199.796875 79.476562 198.480469 79.15625 196.894531 78.988281 C 193.929688 78.679688 190.847656 79.871094 188.871094 82.097656 C 186.890625 84.320312 186.070312 87.519531 186.730469 90.417969 C 186.523438 89.902344 185.804688 89.730469 185.308594 89.984375 C 184.8125 90.242188 184.539062 90.808594 184.484375 91.359375 C 184.433594 91.917969 184.566406 92.46875 184.699219 93.011719 C 184.878906 93.742188 185.054688 94.472656 185.234375 95.203125 C 185.355469 95.710938 185.496094 96.242188 185.859375 96.621094 C 186.222656 96.996094 186.890625 97.136719 187.261719 96.769531 C 187.742188 99.601562 187.941406 102.484375 187.855469 105.359375 C 187.851562 105.585938 187.835938 105.828125 187.707031 106.011719 C 187.585938 106.183594 187.386719 106.277344 187.195312 106.367188 C 182.46875 108.523438 177.738281 110.683594 173.011719 112.84375 C 171.699219 113.441406 170.792969 114.621094 170.082031 115.871094 C 168.539062 118.589844 166.992188 121.308594 165.449219 124.023438 C 165.152344 124.546875 164.859375 125.066406 164.605469 125.613281 C 164.101562 126.707031 163.789062 127.878906 163.308594 128.980469 C 163 129.695312 162.625 130.375 162.238281 131.046875 C 162 131.457031 161.753906 131.875 161.679688 132.34375 C 161.609375 132.808594 161.75 133.34375 162.148438 133.601562 C 161.6875 134.507812 161.242188 135.414062 160.59375 136.203125 C 160.15625 136.734375 159.671875 137.25 159.414062 137.890625 C 159.121094 138.609375 159.152344 139.410156 159.1875 140.183594 C 159.421875 145.117188 159.863281 150.242188 162.386719 154.488281 C 163.09375 155.675781 163.960938 156.800781 164.34375 158.128906 C 164.925781 160.144531 164.300781 162.289062 164.246094 164.386719 C 164.238281 164.65625 164.246094 164.933594 164.347656 165.183594 C 164.460938 165.453125 164.675781 165.664062 164.886719 165.863281 C 166.109375 167.035156 167.472656 168.273438 169.164062 168.433594 C 169.535156 168.464844 169.9375 168.4375 170.238281 168.214844 C 170.410156 168.085938 170.542969 167.902344 170.738281 167.8125 C 171.128906 167.632812 171.632812 167.902344 172 167.679688 C 172.207031 167.550781 172.316406 167.289062 172.535156 167.183594 C 172.769531 167.074219 173.042969 167.171875 173.292969 167.230469 C 173.832031 167.355469 174.421875 167.269531 174.902344 166.992188 C 175 166.9375 175.097656 166.867188 175.160156 166.773438 C 175.332031 166.492188 175.117188 166.140625 174.894531 165.898438 C 174.117188 165.046875 173.128906 164.394531 172.417969 163.488281 C 171.707031 162.578125 171.328125 161.25 171.953125 160.28125 C 173.28125 161.039062 173.589844 163.089844 175.046875 163.5625 C 175.4375 163.6875 176.007812 163.554688 176.03125 163.144531 C 176.039062 163.027344 175.996094 162.917969 175.957031 162.808594 C 175.667969 162.03125 175.378906 161.257812 175.089844 160.480469 C 174.851562 159.84375 174.605469 159.195312 174.171875 158.671875 C 173.195312 157.496094 171.40625 157.121094 170.671875 155.78125 C 170.414062 155.316406 170.316406 154.777344 170.226562 154.253906 C 169.976562 152.828125 169.726562 151.40625 169.476562 149.980469 C 168.917969 146.808594 168.359375 143.574219 168.777344 140.378906 C 168.820312 140.066406 168.886719 139.726562 169.128906 139.53125 C 169.269531 139.414062 169.453125 139.367188 169.621094 139.304688 C 170.398438 139.019531 171.015625 138.421875 171.605469 137.839844 C 173.066406 136.398438 174.527344 134.953125 175.988281 133.511719 C 176.4375 133.066406 177.132812 132.601562 177.632812 132.988281 C 177.960938 133.242188 177.976562 133.722656 177.929688 134.132812 C 177.785156 135.453125 177.304688 136.714844 177.179688 138.035156 C 177.125 138.589844 177.246094 139.003906 177.3125 139.527344 C 177.40625 140.253906 177.300781 141.058594 177.292969 141.792969 C 177.257812 144.800781 177.222656 147.8125 177.1875 150.824219 C 177.175781 152.148438 177.160156 153.476562 176.996094 154.789062 C 176.824219 156.171875 176.492188 157.535156 176.402344 158.925781 C 176.332031 159.992188 176.40625 161.066406 176.40625 162.136719 C 176.402344 165.132812 175.792969 168.125 174.625 170.886719 C 173.929688 172.53125 173.015625 174.1875 173.097656 175.96875 C 173.148438 177.144531 172.523438 178.117188 172.128906 179.222656 C 171.328125 181.476562 171.191406 183.925781 170.371094 186.171875 C 169.382812 188.886719 169.023438 191.496094 168.613281 194.355469 C 168.050781 198.273438 168.769531 202.25 169.488281 206.144531 C 169.519531 206.304688 169.550781 206.46875 169.644531 206.601562 C 169.921875 206.972656 170.664062 207.019531 170.636719 207.480469 C 170.539062 209.015625 171.285156 210.503906 171.648438 211.996094 C 172.1875 214.207031 172.730469 216.457031 172.636719 218.730469 C 172.605469 219.554688 172.488281 220.371094 172.460938 221.195312 C 172.425781 222.246094 172.535156 223.296875 172.785156 224.316406 C 173.539062 227.386719 172.0625 230.402344 171.085938 233.238281 C 170.5625 234.761719 170.375 236.238281 170.085938 237.804688 C 169.789062 239.40625 170.058594 241.148438 170.136719 242.78125 C 170.222656 244.613281 170.308594 246.453125 170.484375 248.28125 C 171.105469 254.699219 172.839844 261.027344 172.691406 267.472656 C 173.019531 268 172.882812 268.640625 172.703125 269.234375 C 172.519531 269.828125 172.214844 270.378906 172.03125 270.972656 C 171.828125 271.625 171.785156 272.316406 171.738281 272.996094 C 171.613281 274.894531 171.5 276.796875 171.492188 278.699219 C 171.488281 279.398438 171.496094 280.101562 171.347656 280.78125 C 171.191406 281.5 170.863281 282.175781 170.71875 282.894531 C 170.585938 283.566406 170.613281 284.261719 170.640625 284.945312 C 170.667969 285.613281 170.742188 286.371094 171.277344 286.773438 C 171.59375 287.015625 172.007812 287.070312 172.402344 287.121094 C 173.234375 287.226562 174.066406 287.328125 174.898438 287.433594 C 175.238281 287.476562 175.582031 287.515625 175.914062 287.453125 C 176.210938 287.390625 176.488281 287.25 176.761719 287.117188 C 177.703125 286.65625 178.695312 286.292969 179.710938 286.035156 C 180.957031 285.714844 182.351562 285.492188 183.171875 284.5 C 183.742188 283.816406 183.914062 282.867188 183.832031 281.976562 C 183.75 281.089844 183.4375 280.242188 183.132812 279.402344 C 182.144531 276.691406 181.175781 273.933594 180.90625 271.0625 C 180.8125 270.070312 180.769531 268.984375 180.097656 268.246094 C 179.71875 265.101562 179.601562 261.742188 180.269531 258.648438 C 181.085938 254.863281 182.675781 251.226562 182.957031 247.363281 C 183.167969 244.476562 184.269531 241.933594 184.480469 239.046875 C 184.558594 238.023438 184.59375 236.996094 184.464844 235.980469 C 184.339844 234.953125 184.046875 233.953125 183.910156 232.929688 C 183.667969 231.167969 183.886719 229.347656 184.535156 227.691406 C 185.222656 225.933594 185.074219 223.867188 185.308594 221.996094 C 185.410156 221.199219 185.511719 220.398438 185.671875 219.609375 C 185.796875 219 185.953125 218.398438 186.085938 217.792969 C 186.523438 215.726562 186.601562 213.597656 186.601562 211.484375 C 186.605469 208.257812 187.105469 205.007812 187.625 201.820312 C 188.140625 203.921875 188.441406 206.070312 188.527344 208.230469 C 188.554688 208.867188 188.5625 209.523438 188.808594 210.109375 C 188.902344 210.328125 189.023438 210.53125 189.089844 210.757812 C 189.175781 211.035156 189.171875 211.332031 189.164062 211.625 C 189.089844 214.410156 188.734375 217.191406 188.101562 219.910156 C 187.84375 221.011719 187.539062 222.136719 187.679688 223.257812 C 187.871094 224.777344 188.851562 226.097656 189.117188 227.601562 C 190.285156 228.847656 190.085938 230.5625 189.980469 232.261719 C 189.898438 233.621094 189.808594 234.996094 189.359375 236.28125 C 188.996094 237.3125 188.410156 238.25 187.976562 239.253906 C 186.398438 242.941406 187.035156 247.191406 188.167969 251.039062 C 188.226562 251.242188 188.292969 251.449219 188.429688 251.609375 C 188.605469 251.816406 188.878906 251.914062 189.136719 252 C 190.113281 252.328125 191.226562 252.648438 192.125 252.148438 C 192.53125 251.925781 192.832031 251.5625 193.136719 251.214844 C 195.304688 248.753906 198.164062 246.613281 198.96875 243.433594 C 199.867188 239.898438 197.914062 236.300781 197.644531 232.660156 C 197.621094 232.351562 197.609375 232.03125 197.71875 231.738281 C 197.835938 231.4375 198.066406 231.195312 198.289062 230.957031 C 199.3125 229.859375 200.234375 228.609375 200.648438 227.164062 C 201.527344 224.089844 199.972656 220.726562 200.792969 217.636719 C 200.648438 217.164062 201.253906 216.621094 201.746094 216.535156 C 202.234375 216.445312 202.738281 216.578125 203.234375 216.53125 C 204.667969 216.394531 205.519531 214.867188 205.902344 213.476562 C 206.5625 211.082031 206.574219 208.558594 207.082031 206.125 C 207.597656 203.664062 208.613281 201.328125 209.113281 198.863281 C 209.339844 197.757812 209.457031 196.636719 209.589844 195.519531 C 210.113281 191.105469 210.863281 186.71875 211.84375 182.386719 C 212 181.679688 212.492188 181.023438 213.160156 180.742188 C 213.339844 180.664062 213.550781 180.628906 213.691406 180.492188 C 213.828125 180.359375 213.867188 180.15625 213.894531 179.964844 C 214.230469 177.675781 213.894531 175.332031 214.191406 173.039062 C 214.359375 171.75 214.726562 170.492188 214.9375 169.210938 C 215.261719 167.285156 215.238281 165.320312 215.214844 163.367188 C 217.003906 161.65625 219.828125 161.363281 222.070312 160.316406 C 222.933594 159.914062 223.738281 159.402344 224.535156 158.886719 C 225.996094 157.953125 227.457031 157.015625 228.917969 156.082031 C 229.78125 155.527344 230.644531 154.972656 231.441406 154.332031 C 232.441406 153.523438 233.332031 152.582031 234.078125 151.539062 C 234.425781 151.054688 234.75 150.53125 234.859375 149.945312 C 234.988281 149.269531 234.820312 148.574219 234.65625 147.90625 Z M 223.703125 146.691406 C 223.640625 146.972656 223.40625 147.175781 223.1875 147.363281 C 221.390625 148.914062 219.953125 150.824219 218.195312 152.417969 C 217.839844 152.742188 215.945312 154.570312 215.445312 154.226562 C 215.210938 154.0625 215.308594 150.828125 215.269531 150.304688 C 215.128906 148.304688 215.449219 146.308594 215.65625 144.3125 C 215.945312 141.535156 216.003906 138.734375 215.839844 135.949219 C 217.675781 137.625 219.070312 139.78125 219.84375 142.144531 C 219.996094 142.605469 220.167969 143.132812 220.613281 143.335938 C 220.929688 143.484375 221.316406 143.429688 221.625 143.59375 C 221.824219 143.699219 221.96875 143.886719 222.105469 144.066406 C 222.511719 144.605469 222.917969 145.144531 223.324219 145.683594 C 223.546875 145.980469 223.78125 146.332031 223.703125 146.691406 Z M 223.703125 146.691406 " fill-opacity="1" fill-rule="nonzero"/></g></g></g><g fill="#545454" fill-opacity="1"><g transform="translate(121.90676, 153.736015)"><g><path d="M 4.792969 0 L 11.851562 0 L 13.925781 -10.347656 C 14.277344 -12.171875 14.566406 -14.085938 14.851562 -15.875 L 15.011719 -15.875 C 15.238281 -14.085938 15.554688 -12.171875 15.9375 -10.347656 L 18.078125 0 L 25.265625 0 L 29.386719 -23.765625 L 23.957031 -23.765625 L 22.421875 -12.9375 C 22.136719 -10.476562 21.816406 -7.953125 21.527344 -5.398438 L 21.371094 -5.398438 C 20.890625 -7.953125 20.476562 -10.507812 19.996094 -12.9375 L 17.503906 -23.765625 L 12.714844 -23.765625 L 10.285156 -12.9375 C 9.804688 -10.476562 9.328125 -7.921875 8.878906 -5.398438 L 8.753906 -5.398438 L 7.792969 -12.9375 L 6.292969 -23.765625 L 0.445312 -23.765625 Z M 4.792969 0 "/></g></g></g><g fill="#545454" fill-opacity="1"><g transform="translate(151.764737, 153.736015)"><g><path d="M 2.746094 0 L 18.175781 0 L 18.175781 -4.792969 L 8.464844 -4.792969 L 8.464844 -9.839844 L 16.417969 -9.839844 L 16.417969 -14.628906 L 8.464844 -14.628906 L 8.464844 -19.039062 L 17.824219 -19.039062 L 17.824219 -23.765625 L 2.746094 -23.765625 Z M 2.746094 0 "/></g></g></g><g fill="#545454" fill-opacity="1"><g transform="translate(171.882946, 153.736015)"><g><path d="M 2.746094 0 L 18.175781 0 L 18.175781 -4.792969 L 8.464844 -4.792969 L 8.464844 -9.839844 L 16.417969 -9.839844 L 16.417969 -14.628906 L 8.464844 -14.628906 L 8.464844 -19.039062 L 17.824219 -19.039062 L 17.824219 -23.765625 L 2.746094 -23.765625 Z M 2.746094 0 "/></g></g></g><g fill="#545454" fill-opacity="1"><g transform="translate(192.001154, 153.736015)"><g><path d="M 2.746094 0 L 8.464844 0 L 8.464844 -6.230469 L 11.050781 -9.742188 L 16.640625 0 L 22.902344 0 L 14.375 -14.246094 L 21.5625 -23.765625 L 15.300781 -23.765625 L 8.5625 -14.375 L 8.464844 -14.375 L 8.464844 -23.765625 L 2.746094 -23.765625 Z M 2.746094 0 "/></g></g></g><g fill="#545454" fill-opacity="1"><g transform="translate(214.610192, 153.736015)"><g><path d="M 2.746094 0 L 17.695312 0 L 17.695312 -4.792969 L 8.464844 -4.792969 L 8.464844 -23.765625 L 2.746094 -23.765625 Z M 2.746094 0 "/></g></g></g><g fill="#545454" fill-opacity="1"><g transform="translate(233.674595, 153.736015)"><g><path d="M 6.867188 0 L 12.554688 0 L 12.554688 -8.402344 L 19.742188 -23.765625 L 13.765625 -23.765625 L 11.785156 -18.496094 C 11.117188 -16.707031 10.476562 -15.042969 9.804688 -13.191406 L 9.679688 -13.191406 C 9.007812 -15.042969 8.402344 -16.707031 7.761719 -18.496094 L 5.78125 -23.765625 L -0.289062 -23.765625 L 6.867188 -8.402344 Z M 6.867188 0 "/></g></g></g></svg>